<svg width="67" height="30" viewBox="0 0 67 30" fill="none" xmlns="http://www.w3.org/2000/svg">
<path d="M6.58629 23.13C7.62223 23.13 8.53863 22.9408 9.3355 22.5623C10.1324 22.1638 10.74 21.5662 11.1583 20.7693V22.7714H15.3419V6.45549H10.8595V15.9881C10.8595 16.9244 10.5806 17.6814 10.0228 18.2592C9.465 18.817 8.74781 19.0959 7.87125 19.0959C6.99469 19.0959 6.27751 18.817 5.7197 18.2592C5.16188 17.6814 4.88298 16.9244 4.88298 15.9881V6.45549H0.400574V16.3467C0.400574 18.3787 0.928501 20.0222 1.98436 21.2773C3.06013 22.5125 4.59411 23.13 6.58629 23.13Z" fill="black"/>
<path d="M18.6181 4.99124H23.1005V0.508829H18.6181V4.99124ZM18.6181 22.7714H23.1005V6.45549H18.6181V22.7714Z" fill="black"/>
<path d="M28.3528 22.7714H32.8352V10.3402H36.3315V6.45549H32.8352V6.21643C32.8352 4.76214 33.6819 4.03499 35.3752 4.03499C35.6542 4.03499 35.9829 4.06487 36.3614 4.12464V0.299651C35.9032 0.200042 35.3752 0.150238 34.7776 0.150238C32.7456 0.150238 31.1618 0.678166 30.0262 1.73402C28.9106 2.78988 28.3528 4.28401 28.3528 6.21643V6.45549H25.6036V10.3402H28.3528V22.7714Z" fill="black"/>
<path d="M38.6371 22.7714H43.1195V13.9859C43.1195 12.7707 43.4582 11.8344 44.1355 11.177C44.8129 10.4996 45.6994 10.1609 46.7951 10.1609H48.1996V6.27619H47.2433C46.2473 6.27619 45.3607 6.46545 44.5838 6.84396C43.8268 7.20256 43.2391 7.88986 42.8207 8.90587V6.45549H38.6371V22.7714Z" fill="black"/>
<path d="M52.7042 29.4054C55.6924 29.4054 57.854 27.7021 59.1887 24.2955L66.1813 6.45549H61.3702L57.5153 16.9443L53.6604 6.45549H48.8493L55.2741 22.7714L54.9753 23.4587C54.7362 23.9966 54.4274 24.4748 54.0489 24.8931C53.6704 25.3115 53.0428 25.5207 52.1663 25.5207C51.4491 25.5207 50.7718 25.421 50.1343 25.2218V28.8974C50.4729 29.0767 50.8614 29.2062 51.2997 29.2859C51.7579 29.3656 52.2261 29.4054 52.7042 29.4054Z" fill="black"/>
</svg>
